<?xml version="1.0" encoding="UTF-8"?>
<svg id="Layer_1" data-name="Layer 1" xmlns="http://www.w3.org/2000/svg" viewBox="0 0 799.99 799.98">
  <defs>
    <style>
      .cls-1 {
        fill: #fff;
        fill-rule: evenodd;
      }
    </style>
  </defs>
  <path class="cls-1" d="M108.25,688.47c.07-26.24,14.97-51.89,39.26-80.6L7.08,519.07c-8.85-3.84-8.66-9.24-3.52-15.63l29.75-25.39c5.4-3.32,11.13-4.75,17.32-3.06l173.31,29.3,144.4-156.38L31.24,119.85c-8.53-5.01-9.24-10.68-.46-17.25l48.63-38.8,439.45,123.5,129.82-138.8c43.55-37.7,85.87-54.56,118.36-46.55,17.9,4.43,24.22,9.77,29.75,26.56,10.74,32.94-5.92,77.21-45.31,122.79l-138.8,129.82,123.5,439.45-38.8,48.63c-6.58,8.72-12.24,8.01-17.25-.46l-228.13-337.04-156.38,144.34,29.3,173.31c1.69,6.12.33,11.85-3.06,17.32l-25.39,29.75c-6.32,5.14-11.78,5.34-15.63-3.52l-88.8-140.43c-28.84,24.35-54.49,39.26-80.86,39.26-2.41-.07-2.93-.91-2.93-3.26h0Z"/>
</svg>